PathFileType	4	(X/Y/Z)	F:\shared\Remotetake0125-Body25.trc
DataRate	CameraRate	NumFrames	NumMarkers	Units	OrigDataRate	OrigDataStartFrame	OrigNumFrames	useTimeStamp
60		60		6		79		mm		60		1575		1799		1																					
Frame#	Time	Timestamp	HeadTop			LHeadFront			LHeadBack			RHeadFront			RHeadBack			C7			T10			CLAV			STRN			LShoulderFront			LShoulderBack			LUArmHigh			LElbow			LElbowIn			LForearm			LWristIn			LWristOut			LHandIn			LHandOut			RShoulderFront			RShoulderBack			RUArmHigh			RElbow			RElbowIn			RForearm			RWristIn			RWristOut			RHandIn			RHandOut			WaistLFront			WaistLSide			WaistLBack			WaistRFront			WaistRSide			WaistRBack			LThigh			LKnee			LKneeIn			LShin			LAnkleOut			LHeel			LMT5			LMT1			LToe			RThigh			RKnee			RKneeIn			RShin			RAnkleOut			RHeel			RMT5			RMT1			RToe			C7			C7			STRN			STRN			LUArmHigh			LForearm			RUArmHigh			RForearm			WaistLFront			WaistLFront			WaistLSide			WaistLSide			WaistLBack			WaistLBack			WaistRFront			WaistRFront			WaistRSide			WaistRSide			WaistRBack			WaistRBack			LThigh			LShin			RThigh			RShin			LShoulderFront			RShoulderFront			
			X1	Y1	Z1	X2	Y2	Z2	X3	Y3	Z3	X4	Y4	Z4	X5	Y5	Z5	X6	Y6	Z6	X7	Y7	Z7	X8	Y8	Z8	X9	Y9	Z9	X10	Y10	Z10	X11	Y11	Z11	X12	Y12	Z12	X13	Y13	Z13	X14	Y14	Z14	X15	Y15	Z15	X16	Y16	Z16	X17	Y17	Z17	X18	Y18	Z18	X19	Y19	Z19	X20	Y20	Z20	X21	Y21	Z21	X22	Y22	Z22	X23	Y23	Z23	X24	Y24	Z24	X25	Y25	Z25	X26	Y26	Z26	X27	Y27	Z27	X28	Y28	Z28	X29	Y29	Z29	X30	Y30	Z30	X31	Y31	Z31	X32	Y32	Z32	X33	Y33	Z33	X34	Y34	Z34	X35	Y35	Z35	X36	Y36	Z36	X37	Y37	Z37	X38	Y38	Z38	X39	Y39	Z39	X40	Y40	Z40	X41	Y41	Z41	X42	Y42	Z42	X43	Y43	Z43	X44	Y44	Z44	X45	Y45	Z45	X46	Y46	Z46	X47	Y47	Z47	X48	Y48	Z48	X49	Y49	Z49	X50	Y50	Z50	X51	Y51	Z51	X52	Y52	Z52	X53	Y53	Z53	X54	Y54	Z54	X55	Y55	Z55	X56	Y56	Z56	X57	Y57	Z57	X58	Y58	Z58	X59	Y59	Z59	X60	Y60	Z60	X61	Y61	Z61	X62	Y62	Z62	X63	Y63	Z63	X64	Y64	Z64	X65	Y65	Z65	X66	Y66	Z66	X67	Y67	Z67	X68	Y68	Z68	X69	Y69	Z69	X70	Y70	Z70	X71	Y71	Z71	X72	Y72	Z72	X73	Y73	Z73	X74	Y74	Z74	X75	Y75	Z75	X76	Y76	Z76	X77	Y77	Z77	X78	Y78	Z78	X79	Y79	Z79	

1575	26.233	1702448237839	454.698914	-486.999023	1696.476807	345.922913	-509.249237	1625.422241	414.292053	-602.356995	1566.056152	520.671692	-480.093658	1639.560303	465.263641	-595.398254	1570.719604	467.421173	-587.046448	1375.076660	477.344360	-583.296753	1074.709351	471.461060	-354.571594	1291.935791	492.047211	-283.504303	1098.900269	322.285950	-400.308380	1327.466064	273.031952	-539.784851	1337.771606	205.859360	-461.483215	1221.242432	204.592896	-423.854523	1085.054688	253.305893	-518.558472	1041.961182																595.655396	-423.598175	1347.285645	611.002319	-570.570496	1329.110840	705.834595	-468.707458	1207.431519																						352.071533	-323.766846	923.071838	286.323456	-416.438293	926.293213	353.774017	-540.489014	939.181152	599.293457	-343.276001	926.214844				537.573242	-551.867249	935.784058	286.807587	-398.079895	609.553833																									626.520264	-371.910767	650.545593	629.151611	-502.304413	454.408752				630.659668	-500.272186	209.485657	611.144531	-537.219238	64.584084	542.367432	-569.851074	82.487572	684.509094	-441.618042	25.981268	570.832825	-394.088745	8.395650	639.742981	-388.967224	43.523617																																																																															
1576	26.250	1702448237857	454.855988	-487.000793	1696.484863	346.008911	-509.137573	1625.454590	414.112427	-602.410583	1566.118042	520.786194	-480.371124	1639.607422	465.081024	-595.628967	1570.895874	467.589966	-587.226746	1375.028687	477.582367	-583.603943	1074.731812	471.666382	-354.730499	1292.001709	492.271515	-283.607727	1098.978760	322.472107	-400.489197	1327.394287	273.152039	-539.996460	1337.880249	205.994400	-461.727264	1221.236206	204.703308	-424.265228	1085.028198	253.576294	-518.911865	1042.044312																595.849365	-423.738434	1347.295410	611.240295	-570.604858	1329.251343	705.943848	-468.821228	1207.494873																						352.287415	-323.897675	923.080383	286.441162	-416.523712	926.325562	353.941071	-540.657227	939.236267	599.458862	-343.299805	926.345215				537.704773	-551.969604	935.799194	287.052429	-398.155457	609.536926																									626.726135	-371.853058	650.547974	629.334656	-502.355164	454.470367				630.718140	-500.275024	209.470520	611.199524	-537.199524	64.629761	542.391602	-569.904602	82.508873	684.528259	-441.612732	26.050493	570.241150	-394.328491	7.636686	639.735962	-389.015900	43.391792																																																																															
1577	26.266	1702448237873	454.974823	-487.082367	1696.451416	346.067780	-508.997101	1625.456055	413.966858	-602.508850	1566.186523	520.991333	-480.612823	1639.539062	465.001587	-595.875732	1570.991699	467.765717	-587.548157	1374.960083	477.781891	-583.786072	1074.602783	471.795898	-354.974121	1291.984497	492.483307	-283.728912	1099.030762	322.538910	-400.749603	1327.451172	273.342285	-540.254395	1337.875366	206.136612	-462.107422	1221.185303	204.908142	-424.710876	1084.871948	253.823502	-519.376709	1042.080078																595.844421	-424.009705	1347.266479	611.513245	-570.710938	1329.209473	706.140686	-468.946442	1207.446655																						352.801300	-324.433380	923.099304	286.600281	-416.531128	926.556213	354.130859	-541.136414	939.070190	599.404175	-344.033264	925.940369				538.098755	-552.138611	935.456543	287.157532	-398.090912	609.629028																									626.787415	-372.178619	650.376282	629.361633	-502.835175	453.965454				630.859985	-500.649994	208.892715	611.118835	-537.579712	64.353188	542.338501	-570.260925	82.234039	684.361328	-441.992035	25.398037	570.187988	-394.309357	7.514636	639.897888	-389.338135	42.915565																																																																															
1578	26.283	1702448237889	455.256226	-487.123535	1696.411499	346.191132	-508.972473	1625.526855	413.925873	-602.664124	1566.266235	521.211609	-480.837585	1639.560913	465.039886	-596.109680	1570.952271	467.996826	-587.769592	1374.935791	478.061371	-583.842957	1074.453613	472.011627	-355.207825	1292.036133	492.601440	-283.816986	1099.139526	322.691986	-400.936859	1327.463867	273.488678	-540.494507	1337.857544	206.326004	-462.341278	1221.124268	205.099396	-425.150909	1084.809204	254.125580	-519.854492	1042.075439																596.099304	-424.214355	1347.187622	611.963318	-570.376465	1329.049438	706.372864	-469.058960	1207.373901																						352.801300	-324.433380	923.099304	286.833221	-416.762543	926.598816	354.307068	-540.829956	939.083435	599.748962	-343.322205	926.336304				538.249512	-552.157471	935.934387	286.662842	-398.726379	609.517151																									626.958801	-371.884125	650.452820	629.632263	-502.245361	454.337036				630.763245	-500.314209	209.117554	611.202881	-537.229004	64.606300	542.301147	-569.966309	82.421555	684.423462	-441.534912	25.740181	570.153076	-394.278534	7.570685	639.675354	-389.039612	43.417015																																																																															
1579	26.300	1702448237906	455.510925	-487.321594	1696.401367	346.375946	-508.981110	1625.534546	413.937561	-602.786743	1566.387329	521.120605	-481.339111	1639.122559	465.114685	-596.414490	1571.031616	468.080780	-588.021973	1374.898926	478.214050	-584.182007	1074.490356	472.106567	-355.329834	1292.083252	492.756927	-283.879608	1099.239258	322.838959	-401.160736	1327.470581	273.619385	-540.828125	1337.787231	206.497269	-462.742371	1221.176514	205.276276	-425.496429	1084.701660	254.350616	-520.173706	1041.992065																596.182556	-424.343719	1347.274658	612.173889	-570.524963	1328.982788	706.567505	-469.109009	1207.315308																						352.880188	-324.497742	923.106018	286.941040	-416.895599	926.660339	355.110931	-540.297363	939.292664	599.919373	-343.384827	926.380249				538.395752	-552.304321	935.960938	286.760712	-398.709869	609.575806																									627.075745	-371.841766	650.539368	629.700256	-502.161713	454.213379				630.892761	-500.233185	209.170563	611.196594	-537.245789	64.510796	542.421875	-569.925598	82.373009	684.550415	-441.629669	25.779039	570.105713	-394.220184	7.493492	639.766907	-389.048248	43.346863																																																																															
1580	26.316	1702448237923	455.712280	-487.471191	1696.322632	346.633759	-509.157104	1625.542114	413.987091	-603.035217	1566.385742	521.657043	-481.537323	1639.388184	465.079590	-596.597778	1571.049805	468.350494	-588.196106	1374.682007	478.420105	-584.367065	1074.408325	472.110901	-355.521820	1292.058594	492.871704	-283.936188	1099.327759	322.901550	-401.366760	1327.444336	273.811279	-541.093140	1337.603271	206.642700	-463.084534	1221.127319	205.400848	-425.793915	1084.645874	254.597717	-520.455444	1041.944214																596.358521	-424.530609	1347.217041	612.308472	-570.671204	1328.952271	706.671692	-469.083160	1207.374634																						352.921143	-324.536194	923.180603	286.983093	-416.967957	926.560486	355.236938	-540.272522	939.227112	600.116516	-343.438599	926.609497				538.526489	-552.251343	935.847351	287.565399	-398.020386	609.579529																									627.192078	-371.787048	650.590942	629.776611	-502.023438	454.239471				630.947876	-500.137085	209.192703	611.254089	-537.230347	64.534531	542.470947	-569.965820	82.536835	684.601074	-441.561890	25.751823	570.547607	-394.041840	7.944361	639.879211	-389.058044	43.317822																																																																															
